<svg width="184" height="192" viewBox="0 0 184 192" fill="none" xmlns="http://www.w3.org/2000/svg">
<path d="M81.5 17.5C81.5 8.5 87 0 92 0C97 0 102.5 8.5 102.5 17.5V56L113.5 65V59.5H128V73L183.5 105V114C168.5 110.167 136.6 102.1 129 100.5C121.4 98.9 108.833 97.8333 103.5 97.5V125C103.5 138.45 98 159 98 159L128 180.5V191.5L94.5 182L92 187L89.5 182L56 191.5V180.5L86 159C86 159 80.5 138.45 80.5 125V97.5C75.1667 97.8333 62.6 98.9 55 100.5C47.4 102.1 15.5 110.167 0.5 114V105L56 73V59.5H70.5V65L81.5 56V17.5Z" fill="white"/>
</svg>
