<svg width="208" height="244" viewBox="0 0 208 244" fill="none" xmlns="http://www.w3.org/2000/svg">
<path d="M93 22C93 12 96 0 104 0C112 0 115 12 115 22V71L136.5 89.5V85H148V100.5L167 118V112.5H179.5V127L207.5 157V169C194.167 159.5 164.1 141 150.5 135C136.9 129 121.167 125.5 115 124.5V178.5C115 185.7 114 195.167 113.5 199L145 229V243.5L104 232L63 243.5V229L94.5 199C94 195.167 93 185.7 93 178.5V124.5C86.8333 125.5 71.1 129 57.5 135C43.9 141 13.8333 159.5 0.5 169V157L28.5 127V112.5H41V118L60 100.5V85H71.5V89.5L93 71V22Z" fill="white"/>
</svg>
