<svg width="244" height="247" viewBox="0 0 244 247" fill="none" xmlns="http://www.w3.org/2000/svg">
<path d="M112 23C112 15.5966 115.898 0.398126 122.25 0.00767055C128.602 0.398126 132.5 15.5966 132.5 23V87L149.5 97V90H162V103L188 120V110.5H200V126.5L244 161V167.5C218.833 156.167 166.057 134.377 157.5 132C148.5 129.5 137 129.5 132.5 129.5V191L129.5 213L160.5 237.5V247L126 233L122.25 240.969L118.5 233L84 247V237.5L115 213L112 191V129.5C107.5 129.5 96 129.5 87 132C78.4426 134.377 25.6667 156.167 0.5 167.5V161L44.5 126.5V110.5H56.5V120L82.5 103V90H95V97L112 87V23Z" fill="white"/>
</svg>
