<svg width="252" height="228" viewBox="0 0 252 228" fill="none" xmlns="http://www.w3.org/2000/svg">
<path d="M115 12C115 5.5 121.5 0 126 0C130.5 0 137 5.5 137 12C137 17.2 136.667 44.5 136.5 57.5L162.5 77.5V69H178V88L197 104V91H212V113L252 145V159C229 149 180.4 128 170 124C159.6 120 144.333 116.667 138 115.5V175.5L136 184L172 213V227.5L130.5 208L126 219.5L121.5 208L80 227.5V213L116 184L114 175.5V115.5C107.667 116.667 92.4 120 82 124C71.6 128 23 149 0 159V145L40 113V91H55V104L74 88V69H89.5V77.5L115.5 57.5C115.333 44.5 115 17.2 115 12Z" fill="white"/>
</svg>
